PathFileType	4	(X/Y/Z)	s05c0402.trc
DataRate	CameraRate	NumFrames	NumMarkers	Units	OrigDataRate	OrigDataStartFrame	OrigNumFrames
200	200	6	50	mm	200	1500	2000
Frame#	Time	racr			lacr			c7			jug			rlel			rdr			llel			ldr			s2			lic			ric			lasi			rasi			rpsi			lpsi			rgt			lgt			rth1			rth2			rth3			rth4			rlfc			rmfc			rsh1			rsh2			rsh3			rsh4			rlmal			rmmal			rcal			rtoe			rmt5			lth1			lth2			lth4			lth3			llfc			lmfc			lsh1			lsh2			lsh3			lsh4			llmal			lmmal			lcal			ltoe			lmt5			SBIKE			LBIKE			RBIKE			
		X1	Y1	Z1	X2	Y2	Z2	X3	Y3	Z3	X4	Y4	Z4	X5	Y5	Z5	X6	Y6	Z6	X7	Y7	Z7	X8	Y8	Z8	X9	Y9	Z9	X10	Y10	Z10	X11	Y11	Z11	X12	Y12	Z12	X13	Y13	Z13	X14	Y14	Z14	X15	Y15	Z15	X16	Y16	Z16	X17	Y17	Z17	X18	Y18	Z18	X19	Y19	Z19	X20	Y20	Z20	X21	Y21	Z21	X22	Y22	Z22	X23	Y23	Z23	X24	Y24	Z24	X25	Y25	Z25	X26	Y26	Z26	X27	Y27	Z27	X28	Y28	Z28	X29	Y29	Z29	X30	Y30	Z30	X31	Y31	Z31	X32	Y32	Z32	X33	Y33	Z33	X34	Y34	Z34	X35	Y35	Z35	X36	Y36	Z36	X37	Y37	Z37	X38	Y38	Z38	X39	Y39	Z39	X40	Y40	Z40	X41	Y41	Z41	X42	Y42	Z42	X43	Y43	Z43	X44	Y44	Z44	X45	Y45	Z45	X46	Y46	Z46	X47	Y47	Z47	X48	Y48	Z48	X49	Y49	Z49	X50	Y50	Z50	
1500	7.5000	825.316280	1261.856904	-180.208918	807.423785	1277.613307	-478.658339	807.799390	1363.212155	-333.251796	739.299305	1206.887230	-330.619609	624.792525	1158.586082	23.291490	687.091031	959.898709	-69.627258	543.834102	1157.261309	-611.753347	672.086400	964.550750	-520.026078	218.160456	1263.423850	-218.287546	329.447552	1277.606963	-380.248937	395.239981	1215.019721	-109.403256	367.704017	1207.915222	-363.536898	402.491277	1150.951137	-155.981012	272.530891	1292.264455	-173.123647	258.889847	1314.084334	-256.813482	292.791486	1098.132582	-95.993020	258.397086	1200.098910	-414.508490	320.659747	988.430918	-90.537536	351.674064	904.777696	-92.358040	336.026786	817.994840	-96.060326	386.256291	908.567427	-104.677750	350.811638	667.527520	-118.428806	332.464530	666.658342	-225.972986	265.343623	601.299458	-87.134279	229.271664	520.979481	-97.715794	161.643573	467.684154	-98.029392	252.958140	505.116566	-123.669834	81.543266	353.019679	-103.479080	108.868906	370.364294	-184.493404	10.951080	380.473945	-149.069928	187.313769	141.355010	-161.128546	106.715515	200.622115	-92.167573	349.625632	1097.611556	-451.236242	430.134073	1066.913936	-457.854562	452.799732	1092.228115	-440.560767	485.371443	996.638130	-470.720614	587.121369	882.978911	-454.126725	584.281961	863.774756	-342.698417	488.035932	804.938053	-468.071269	443.599773	730.395857	-458.652444	365.781485	688.135705	-452.249830	469.194396	706.523008	-442.733718	282.418301	588.135710	-444.491121	323.455259	600.079009	-372.021242	210.646456	585.816136	-401.797825	444.225329	408.010685	-403.533325	340.002374	443.426614	-468.530329	-263.688652	894.562006	-286.936641	-53.436514	79.457510	-474.938436	-53.388407	79.518794	-77.382679	
1501	7.5050	824.364981	1263.327882	-179.522029	807.213731	1275.111036	-478.674024	807.935931	1363.203751	-334.012883	739.540233	1205.986904	-329.705077	624.555486	1158.681721	22.152137	686.717301	959.638454	-70.517116	543.679948	1156.442464	-613.405497	672.030840	964.581944	-520.167379	218.499356	1265.482864	-217.677044	331.736645	1277.855891	-381.889382	394.415019	1217.449019	-108.378488	367.431502	1207.798708	-362.632363	405.110058	1153.707336	-150.957577	272.987430	1294.554705	-173.282738	259.209622	1315.459943	-256.324701	293.829727	1100.011934	-94.432034	256.925207	1200.814419	-413.389480	324.181527	989.399084	-89.909669	357.234953	906.547513	-92.706676	343.680577	819.426267	-96.336561	391.430394	911.293637	-105.414820	359.321418	669.625332	-119.271842	340.549798	669.778870	-227.225843	272.336113	605.326661	-87.585495	233.905065	526.100636	-97.960276	164.855545	474.674973	-97.911669	256.950494	509.533720	-124.211749	80.808574	361.666241	-103.174653	108.844213	378.353524	-184.498139	11.388933	391.166436	-149.357052	179.402321	146.500198	-160.908479	100.808625	208.329614	-92.380691	346.067800	1096.688588	-450.795818	425.906953	1064.618055	-458.527802	449.212708	1089.620567	-441.626830	479.485464	993.439602	-472.410553	580.142065	878.145544	-455.739359	578.664790	858.599178	-344.803828	481.818500	798.097568	-469.603892	439.228336	722.544828	-459.543398	362.458765	678.523113	-452.883982	465.401930	699.202714	-443.812594	281.513767	576.909458	-444.177806	322.391224	590.385951	-371.914015	210.016517	571.476736	-401.332040	450.846391	404.536724	-404.468926	344.805005	434.838122	-468.822960	-263.570770	894.642148	-287.459452	-53.429771	79.513216	-475.023679	-53.379996	79.530263	-77.411235	
1502	7.5100	824.659913	1264.836396	-179.299589	807.073006	1273.018054	-478.680973	808.127769	1363.283279	-334.731623	739.631820	1205.665434	-328.644068	624.422917	1158.968080	20.967659	686.413571	959.395986	-71.165287	543.621195	1155.677068	-614.971046	672.015279	964.599346	-520.342830	220.569114	1266.533422	-218.086012	331.865394	1277.271814	-381.906572	394.184098	1219.889581	-107.223938	367.174896	1207.361893	-361.736647	404.525982	1153.849517	-148.945905	274.974350	1295.607685	-174.749250	259.558755	1316.786025	-256.840332	295.378442	1101.746864	-92.960133	255.361973	1201.096341	-412.338368	327.977470	990.372584	-89.363014	362.766218	908.364905	-93.145989	351.182419	820.961792	-96.839858	396.884884	913.923558	-106.164684	367.708068	671.754877	-120.188662	350.091347	671.485899	-227.964164	279.932698	609.399512	-88.105702	238.738687	531.228268	-98.340985	168.113096	481.973468	-97.696352	260.972663	514.085888	-124.890183	80.610709	370.573928	-102.841970	109.134754	386.578350	-184.573618	12.000555	402.178306	-148.929364	171.858617	152.128401	-160.823036	95.534858	216.479803	-92.549562	342.457756	1095.195522	-450.445696	421.547258	1061.749067	-459.063119	445.567569	1086.375311	-442.635272	473.723479	989.554953	-473.251796	572.532407	872.581697	-457.846742	572.097402	853.269923	-346.346246	475.534364	790.392258	-470.326390	434.753977	713.730643	-460.445881	359.116511	667.903633	-453.331548	461.519924	691.139566	-444.627169	280.129656	564.329973	-443.035251	321.594822	579.784539	-371.510846	209.436583	556.436447	-399.768137	456.839578	400.308931	-405.919214	348.814610	425.786919	-469.345622	-263.624932	894.741725	-287.770081	-53.425251	79.480308	-475.048943	-53.337179	79.597327	-77.429488	
1503	7.5150	825.023548	1266.733754	-178.574545	806.970941	1271.252250	-478.597510	808.347512	1363.327726	-335.209653	739.990942	1205.542881	-327.489932	624.836410	1158.906318	19.393925	686.280062	959.237368	-71.599434	543.362971	1154.911395	-615.933068	672.015708	964.619140	-520.585803	220.670394	1267.803467	-217.526651	331.755544	1276.323159	-381.773440	394.268254	1222.021296	-106.167894	366.934984	1206.511333	-360.756835	404.821157	1156.333915	-147.966378	275.082515	1297.123013	-174.870786	259.775785	1317.749633	-257.408633	297.042710	1102.956921	-91.446732	253.783437	1200.850777	-411.298665	331.906158	991.424057	-88.916561	368.281550	910.142508	-93.457581	358.391684	822.588280	-97.537080	402.064190	916.472107	-107.096320	375.767597	673.999326	-121.239434	358.322635	674.110603	-229.087803	286.923742	613.297589	-88.862976	243.641835	536.262837	-98.808420	171.710502	488.798330	-97.740174	265.232256	518.706045	-125.669199	80.777200	379.444703	-102.566871	109.818994	394.684799	-184.639338	13.119027	413.224099	-148.431861	164.786664	158.023069	-160.788896	90.576364	224.713018	-92.713383	338.790721	1093.181876	-450.169877	417.131416	1058.266551	-459.530169	441.851011	1082.568359	-443.510843	467.797932	985.074690	-474.007794	564.504321	866.269491	-459.832408	565.739965	847.228701	-348.010293	469.229278	781.889136	-471.427091	430.282415	704.176513	-461.080744	355.844843	656.475118	-453.589616	457.634733	682.277990	-445.130959	279.173444	552.083412	-442.354039	320.799271	568.636040	-371.007391	208.918422	541.350201	-397.959577	462.026070	395.147458	-407.953215	352.156329	416.121021	-469.932598	-263.543609	894.739861	-287.841112	-53.420495	79.370819	-474.990224	-53.334843	79.605958	-77.428088	
1504	7.5200	825.592616	1268.655842	-178.264177	806.896025	1269.793810	-478.465916	808.499481	1363.486048	-335.640099	740.512570	1205.422686	-326.303318	625.192394	1159.028573	18.039874	686.316957	959.121155	-71.658254	543.449673	1154.453543	-617.289487	671.998717	964.583038	-520.954888	220.631390	1268.806609	-217.011062	331.747386	1275.007809	-381.815945	394.782883	1224.235313	-105.158587	366.760596	1205.374495	-359.886391	404.999275	1157.774667	-147.158373	276.166911	1297.561102	-175.429781	259.709544	1318.220329	-257.536318	298.789764	1103.804034	-89.906298	252.111806	1200.139991	-410.367454	335.780819	992.529871	-88.649354	373.542572	911.896573	-94.280874	365.337275	824.176616	-98.366721	406.998514	918.915238	-108.028775	383.486098	676.299843	-122.482829	365.909200	676.902816	-230.355899	293.821775	616.942567	-89.746313	248.481503	541.065341	-99.423295	175.314809	495.579685	-97.863736	269.243790	522.982447	-126.649035	81.213191	388.259270	-102.342668	107.921988	404.190796	-184.369214	14.623493	424.214749	-148.105289	158.074468	164.479817	-160.963129	86.141165	233.361184	-92.774240	335.156443	1090.700314	-449.876170	412.947678	1054.494016	-459.340563	438.054690	1078.195578	-444.369533	461.908947	980.183646	-474.363984	556.905486	859.706891	-460.001744	558.897425	840.719727	-349.428140	462.673117	772.460229	-471.970762	425.838976	693.956038	-461.326474	352.718838	644.404406	-453.430993	453.750883	673.068025	-445.136171	278.132382	539.078170	-440.984624	320.210792	556.970858	-370.065520	208.513485	526.282123	-395.380307	466.544848	389.056536	-410.156431	354.972721	406.092205	-470.451449	-263.427941	894.693262	-287.819042	-53.416770	79.392623	-475.048941	-53.327591	79.599000	-77.426214	
1505	7.5250	826.278808	1270.664607	-177.835902	806.909274	1268.623345	-478.255230	808.634799	1363.654978	-335.915041	741.184078	1205.470479	-325.056482	625.799616	1159.296824	16.773867	686.552152	959.055381	-71.397382	543.628958	1154.101541	-618.537067	671.908697	964.536798	-521.485762	220.447290	1269.419565	-216.597131	331.034723	1273.196900	-381.287679	394.083770	1225.941983	-104.903974	366.537059	1204.059622	-359.000945	404.941591	1159.108901	-145.925917	276.153409	1298.052763	-175.511055	259.891097	1318.262796	-258.241361	300.586483	1104.618958	-88.499770	250.362977	1199.019986	-409.576264	339.540425	993.592662	-88.518493	378.589543	913.706262	-95.112230	371.733837	825.828488	-99.304023	411.505762	921.232445	-108.903296	390.766315	678.499331	-123.727435	372.716354	679.844330	-231.779651	299.900430	620.509896	-90.821202	253.309801	545.779330	-100.132193	179.063045	501.991753	-98.087078	273.296137	527.332373	-127.733355	81.981065	397.121431	-102.209937	108.647972	412.998514	-184.307390	16.193019	435.129575	-147.623702	150.678882	170.346709	-162.722239	82.421036	242.208349	-92.878358	331.610834	1087.931553	-449.540707	408.604800	1050.213893	-459.631584	434.350865	1073.513648	-445.194423	455.946705	974.711396	-474.487842	548.736389	852.638303	-461.071129	551.895469	833.976708	-350.692477	455.997305	762.789635	-472.381529	421.352511	683.365142	-461.151671	349.615844	631.912722	-452.843090	449.810299	663.365488	-444.737140	277.206205	526.308847	-439.613806	318.759247	545.250413	-368.441356	208.735368	511.249979	-393.911910	470.357697	382.339445	-410.844828	357.902959	395.989459	-470.886003	-263.267184	894.546367	-287.328811	-53.425567	79.316982	-475.070647	-53.334223	79.452059	-77.445098	
